<svg id="visual" viewBox="0 0 960 180" width="960" height="180" xmlns="http://www.w3.org/2000/svg" xmlns:xlink="http://www.w3.org/1999/xlink" version="1.1"><path d="M0 91L16 88C32 85 64 79 96 75.5C128 72 160 71 192 72.3C224 73.7 256 77.3 288 76.8C320 76.3 352 71.7 384 73.2C416 74.7 448 82.3 480 80.7C512 79 544 68 576 63.5C608 59 640 61 672 61.3C704 61.7 736 60.3 768 64C800 67.7 832 76.3 864 78.2C896 80 928 75 944 72.5L960 70L960 0L944 0C928 0 896 0 864 0C832 0 800 0 768 0C736 0 704 0 672 0C640 0 608 0 576 0C544 0 512 0 480 0C448 0 416 0 384 0C352 0 320 0 288 0C256 0 224 0 192 0C160 0 128 0 96 0C64 0 32 0 16 0L0 0Z" fill="#60a7ff"></path><path d="M0 50L16 53.5C32 57 64 64 96 67.2C128 70.3 160 69.7 192 69.7C224 69.7 256 70.3 288 67C320 63.7 352 56.3 384 54C416 51.7 448 54.3 480 53.8C512 53.3 544 49.7 576 52C608 54.3 640 62.7 672 65.2C704 67.7 736 64.3 768 61.8C800 59.3 832 57.7 864 58.5C896 59.3 928 62.7 944 64.3L960 66L960 0L944 0C928 0 896 0 864 0C832 0 800 0 768 0C736 0 704 0 672 0C640 0 608 0 576 0C544 0 512 0 480 0C448 0 416 0 384 0C352 0 320 0 288 0C256 0 224 0 192 0C160 0 128 0 96 0C64 0 32 0 16 0L0 0Z" fill="#518add"></path><path d="M0 56L16 53C32 50 64 44 96 40.3C128 36.7 160 35.3 192 37C224 38.7 256 43.3 288 45.8C320 48.3 352 48.7 384 47C416 45.3 448 41.7 480 41.8C512 42 544 46 576 46C608 46 640 42 672 43.8C704 45.7 736 53.3 768 54.3C800 55.3 832 49.7 864 45C896 40.3 928 36.7 944 34.8L960 33L960 0L944 0C928 0 896 0 864 0C832 0 800 0 768 0C736 0 704 0 672 0C640 0 608 0 576 0C544 0 512 0 480 0C448 0 416 0 384 0C352 0 320 0 288 0C256 0 224 0 192 0C160 0 128 0 96 0C64 0 32 0 16 0L0 0Z" fill="#426ebb"></path><path d="M0 29L16 29.8C32 30.7 64 32.3 96 32.7C128 33 160 32 192 31.2C224 30.3 256 29.7 288 31.3C320 33 352 37 384 39.2C416 41.3 448 41.7 480 41.2C512 40.7 544 39.3 576 36.2C608 33 640 28 672 25.2C704 22.3 736 21.7 768 23C800 24.3 832 27.7 864 30.2C896 32.7 928 34.3 944 35.2L960 36L960 0L944 0C928 0 896 0 864 0C832 0 800 0 768 0C736 0 704 0 672 0C640 0 608 0 576 0C544 0 512 0 480 0C448 0 416 0 384 0C352 0 320 0 288 0C256 0 224 0 192 0C160 0 128 0 96 0C64 0 32 0 16 0L0 0Z" fill="#32539a"></path><path d="M0 17L16 16.3C32 15.7 64 14.3 96 14.7C128 15 160 17 192 17.7C224 18.3 256 17.7 288 18.7C320 19.7 352 22.3 384 21C416 19.7 448 14.3 480 11.5C512 8.7 544 8.3 576 8C608 7.7 640 7.3 672 7.5C704 7.7 736 8.3 768 11.7C800 15 832 21 864 20.8C896 20.7 928 14.3 944 11.2L960 8L960 0L944 0C928 0 896 0 864 0C832 0 800 0 768 0C736 0 704 0 672 0C640 0 608 0 576 0C544 0 512 0 480 0C448 0 416 0 384 0C352 0 320 0 288 0C256 0 224 0 192 0C160 0 128 0 96 0C64 0 32 0 16 0L0 0Z" fill="#223a7a"></path></svg>