<svg id="visual" viewBox="0 0 960 180" width="960" height="180" xmlns="http://www.w3.org/2000/svg" xmlns:xlink="http://www.w3.org/1999/xlink" version="1.1"><path d="M0 114L16 114C32 114 64 114 96 111.8C128 109.7 160 105.3 192 100.5C224 95.7 256 90.3 288 88.2C320 86 352 87 384 90.8C416 94.7 448 101.3 480 106C512 110.7 544 113.3 576 110.3C608 107.3 640 98.7 672 94.3C704 90 736 90 768 89.2C800 88.3 832 86.7 864 92C896 97.3 928 109.7 944 115.8L960 122L960 181L944 181C928 181 896 181 864 181C832 181 800 181 768 181C736 181 704 181 672 181C640 181 608 181 576 181C544 181 512 181 480 181C448 181 416 181 384 181C352 181 320 181 288 181C256 181 224 181 192 181C160 181 128 181 96 181C64 181 32 181 16 181L0 181Z" fill="#60a7ff"></path><path d="M0 131L16 129C32 127 64 123 96 122.7C128 122.3 160 125.7 192 125.2C224 124.7 256 120.3 288 121.2C320 122 352 128 384 125.8C416 123.7 448 113.3 480 108.2C512 103 544 103 576 106.3C608 109.7 640 116.3 672 120.8C704 125.3 736 127.7 768 127.5C800 127.3 832 124.7 864 125.2C896 125.7 928 129.3 944 131.2L960 133L960 181L944 181C928 181 896 181 864 181C832 181 800 181 768 181C736 181 704 181 672 181C640 181 608 181 576 181C544 181 512 181 480 181C448 181 416 181 384 181C352 181 320 181 288 181C256 181 224 181 192 181C160 181 128 181 96 181C64 181 32 181 16 181L0 181Z" fill="#518add"></path><path d="M0 142L16 137.8C32 133.7 64 125.3 96 123.8C128 122.3 160 127.7 192 129.7C224 131.7 256 130.3 288 132C320 133.7 352 138.3 384 138.3C416 138.3 448 133.7 480 133.3C512 133 544 137 576 139.2C608 141.3 640 141.7 672 139.5C704 137.3 736 132.7 768 133.2C800 133.7 832 139.3 864 141.8C896 144.3 928 143.7 944 143.3L960 143L960 181L944 181C928 181 896 181 864 181C832 181 800 181 768 181C736 181 704 181 672 181C640 181 608 181 576 181C544 181 512 181 480 181C448 181 416 181 384 181C352 181 320 181 288 181C256 181 224 181 192 181C160 181 128 181 96 181C64 181 32 181 16 181L0 181Z" fill="#426ebb"></path><path d="M0 135L16 139C32 143 64 151 96 151.3C128 151.7 160 144.3 192 142.5C224 140.7 256 144.3 288 146.5C320 148.7 352 149.3 384 147.2C416 145 448 140 480 139.3C512 138.7 544 142.3 576 142.2C608 142 640 138 672 136.8C704 135.7 736 137.3 768 141C800 144.7 832 150.3 864 149.7C896 149 928 142 944 138.5L960 135L960 181L944 181C928 181 896 181 864 181C832 181 800 181 768 181C736 181 704 181 672 181C640 181 608 181 576 181C544 181 512 181 480 181C448 181 416 181 384 181C352 181 320 181 288 181C256 181 224 181 192 181C160 181 128 181 96 181C64 181 32 181 16 181L0 181Z" fill="#32539a"></path><path d="M0 162L16 161.3C32 160.7 64 159.3 96 160.8C128 162.3 160 166.7 192 167.8C224 169 256 167 288 166.2C320 165.3 352 165.7 384 165.5C416 165.3 448 164.7 480 165.2C512 165.7 544 167.3 576 168.5C608 169.7 640 170.3 672 167.7C704 165 736 159 768 158.8C800 158.7 832 164.3 864 164.8C896 165.3 928 160.7 944 158.3L960 156L960 181L944 181C928 181 896 181 864 181C832 181 800 181 768 181C736 181 704 181 672 181C640 181 608 181 576 181C544 181 512 181 480 181C448 181 416 181 384 181C352 181 320 181 288 181C256 181 224 181 192 181C160 181 128 181 96 181C64 181 32 181 16 181L0 181Z" fill="#223a7a"></path></svg>