<svg id="visual" viewBox="0 0 960 180" width="960" height="180" xmlns="http://www.w3.org/2000/svg" xmlns:xlink="http://www.w3.org/1999/xlink" version="1.1"><path d="M0 57L16 62.2C32 67.3 64 77.7 96 80C128 82.3 160 76.7 192 75.2C224 73.7 256 76.3 288 73.8C320 71.3 352 63.7 384 60.5C416 57.3 448 58.7 480 63.2C512 67.7 544 75.3 576 76C608 76.7 640 70.3 672 67.3C704 64.3 736 64.7 768 66.7C800 68.7 832 72.3 864 73C896 73.7 928 71.3 944 70.2L960 69L960 0L944 0C928 0 896 0 864 0C832 0 800 0 768 0C736 0 704 0 672 0C640 0 608 0 576 0C544 0 512 0 480 0C448 0 416 0 384 0C352 0 320 0 288 0C256 0 224 0 192 0C160 0 128 0 96 0C64 0 32 0 16 0L0 0Z" fill="#60a7ff"></path><path d="M0 52L16 53.3C32 54.7 64 57.3 96 58.5C128 59.7 160 59.3 192 56.7C224 54 256 49 288 51.3C320 53.7 352 63.3 384 64C416 64.7 448 56.3 480 53.8C512 51.3 544 54.7 576 58.2C608 61.7 640 65.3 672 63.5C704 61.7 736 54.3 768 52.5C800 50.7 832 54.3 864 54.5C896 54.7 928 51.3 944 49.7L960 48L960 0L944 0C928 0 896 0 864 0C832 0 800 0 768 0C736 0 704 0 672 0C640 0 608 0 576 0C544 0 512 0 480 0C448 0 416 0 384 0C352 0 320 0 288 0C256 0 224 0 192 0C160 0 128 0 96 0C64 0 32 0 16 0L0 0Z" fill="#518add"></path><path d="M0 53L16 49.8C32 46.7 64 40.3 96 39.3C128 38.3 160 42.7 192 43.2C224 43.7 256 40.3 288 37.8C320 35.3 352 33.7 384 35.5C416 37.3 448 42.7 480 44C512 45.3 544 42.7 576 40.5C608 38.3 640 36.7 672 39.5C704 42.3 736 49.7 768 53C800 56.3 832 55.7 864 51.5C896 47.3 928 39.7 944 35.8L960 32L960 0L944 0C928 0 896 0 864 0C832 0 800 0 768 0C736 0 704 0 672 0C640 0 608 0 576 0C544 0 512 0 480 0C448 0 416 0 384 0C352 0 320 0 288 0C256 0 224 0 192 0C160 0 128 0 96 0C64 0 32 0 16 0L0 0Z" fill="#426ebb"></path><path d="M0 24L16 25.5C32 27 64 30 96 32.8C128 35.7 160 38.3 192 38.2C224 38 256 35 288 32.7C320 30.3 352 28.7 384 28C416 27.3 448 27.7 480 29.5C512 31.3 544 34.7 576 35.8C608 37 640 36 672 34.7C704 33.3 736 31.7 768 29.7C800 27.7 832 25.3 864 23.7C896 22 928 21 944 20.5L960 20L960 0L944 0C928 0 896 0 864 0C832 0 800 0 768 0C736 0 704 0 672 0C640 0 608 0 576 0C544 0 512 0 480 0C448 0 416 0 384 0C352 0 320 0 288 0C256 0 224 0 192 0C160 0 128 0 96 0C64 0 32 0 16 0L0 0Z" fill="#32539a"></path><path d="M0 7L16 8.2C32 9.3 64 11.7 96 13.2C128 14.7 160 15.3 192 16.5C224 17.7 256 19.3 288 19.3C320 19.3 352 17.7 384 17.7C416 17.7 448 19.3 480 21.2C512 23 544 25 576 23.7C608 22.3 640 17.7 672 14.5C704 11.3 736 9.7 768 9.7C800 9.7 832 11.3 864 13.3C896 15.3 928 17.7 944 18.8L960 20L960 0L944 0C928 0 896 0 864 0C832 0 800 0 768 0C736 0 704 0 672 0C640 0 608 0 576 0C544 0 512 0 480 0C448 0 416 0 384 0C352 0 320 0 288 0C256 0 224 0 192 0C160 0 128 0 96 0C64 0 32 0 16 0L0 0Z" fill="#223a7a"></path></svg>