<svg id="visual" viewBox="0 0 960 180" width="960" height="180" xmlns="http://www.w3.org/2000/svg" xmlns:xlink="http://www.w3.org/1999/xlink" version="1.1"><path d="M0 87L16 90C32 93 64 99 96 102.5C128 106 160 107 192 105.7C224 104.3 256 100.7 288 101.2C320 101.7 352 106.3 384 104.8C416 103.3 448 95.7 480 97.3C512 99 544 110 576 114.5C608 119 640 117 672 116.7C704 116.3 736 117.7 768 114C800 110.3 832 101.7 864 99.8C896 98 928 103 944 105.5L960 108L960 181L944 181C928 181 896 181 864 181C832 181 800 181 768 181C736 181 704 181 672 181C640 181 608 181 576 181C544 181 512 181 480 181C448 181 416 181 384 181C352 181 320 181 288 181C256 181 224 181 192 181C160 181 128 181 96 181C64 181 32 181 16 181L0 181Z" fill="#60a7ff"></path><path d="M0 128L16 124.5C32 121 64 114 96 110.8C128 107.7 160 108.3 192 108.3C224 108.3 256 107.7 288 111C320 114.3 352 121.7 384 124C416 126.3 448 123.7 480 124.2C512 124.7 544 128.3 576 126C608 123.7 640 115.3 672 112.8C704 110.3 736 113.7 768 116.2C800 118.7 832 120.3 864 119.5C896 118.7 928 115.3 944 113.7L960 112L960 181L944 181C928 181 896 181 864 181C832 181 800 181 768 181C736 181 704 181 672 181C640 181 608 181 576 181C544 181 512 181 480 181C448 181 416 181 384 181C352 181 320 181 288 181C256 181 224 181 192 181C160 181 128 181 96 181C64 181 32 181 16 181L0 181Z" fill="#518add"></path><path d="M0 122L16 125C32 128 64 134 96 137.7C128 141.3 160 142.7 192 141C224 139.3 256 134.7 288 132.2C320 129.7 352 129.3 384 131C416 132.7 448 136.3 480 136.2C512 136 544 132 576 132C608 132 640 136 672 134.2C704 132.3 736 124.7 768 123.7C800 122.7 832 128.3 864 133C896 137.7 928 141.3 944 143.2L960 145L960 181L944 181C928 181 896 181 864 181C832 181 800 181 768 181C736 181 704 181 672 181C640 181 608 181 576 181C544 181 512 181 480 181C448 181 416 181 384 181C352 181 320 181 288 181C256 181 224 181 192 181C160 181 128 181 96 181C64 181 32 181 16 181L0 181Z" fill="#426ebb"></path><path d="M0 149L16 148.2C32 147.3 64 145.7 96 145.3C128 145 160 146 192 146.8C224 147.7 256 148.3 288 146.7C320 145 352 141 384 138.8C416 136.7 448 136.3 480 136.8C512 137.3 544 138.7 576 141.8C608 145 640 150 672 152.8C704 155.7 736 156.3 768 155C800 153.7 832 150.3 864 147.8C896 145.3 928 143.7 944 142.8L960 142L960 181L944 181C928 181 896 181 864 181C832 181 800 181 768 181C736 181 704 181 672 181C640 181 608 181 576 181C544 181 512 181 480 181C448 181 416 181 384 181C352 181 320 181 288 181C256 181 224 181 192 181C160 181 128 181 96 181C64 181 32 181 16 181L0 181Z" fill="#32539a"></path><path d="M0 161L16 161.7C32 162.3 64 163.7 96 163.3C128 163 160 161 192 160.3C224 159.7 256 160.3 288 159.3C320 158.3 352 155.7 384 157C416 158.3 448 163.7 480 166.5C512 169.3 544 169.7 576 170C608 170.3 640 170.7 672 170.5C704 170.3 736 169.7 768 166.3C800 163 832 157 864 157.2C896 157.3 928 163.7 944 166.8L960 170L960 181L944 181C928 181 896 181 864 181C832 181 800 181 768 181C736 181 704 181 672 181C640 181 608 181 576 181C544 181 512 181 480 181C448 181 416 181 384 181C352 181 320 181 288 181C256 181 224 181 192 181C160 181 128 181 96 181C64 181 32 181 16 181L0 181Z" fill="#223a7a"></path></svg>