<svg id="visual" viewBox="0 0 960 180" width="960" height="180" xmlns="http://www.w3.org/2000/svg" xmlns:xlink="http://www.w3.org/1999/xlink" version="1.1"><path d="M0 64L16 64C32 64 64 64 96 66.2C128 68.3 160 72.7 192 77.5C224 82.3 256 87.7 288 89.8C320 92 352 91 384 87.2C416 83.3 448 76.7 480 72C512 67.3 544 64.7 576 67.7C608 70.7 640 79.3 672 83.7C704 88 736 88 768 88.8C800 89.7 832 91.3 864 86C896 80.7 928 68.3 944 62.2L960 56L960 0L944 0C928 0 896 0 864 0C832 0 800 0 768 0C736 0 704 0 672 0C640 0 608 0 576 0C544 0 512 0 480 0C448 0 416 0 384 0C352 0 320 0 288 0C256 0 224 0 192 0C160 0 128 0 96 0C64 0 32 0 16 0L0 0Z" fill="#60a7ff"></path><path d="M0 47L16 49C32 51 64 55 96 55.3C128 55.7 160 52.3 192 52.8C224 53.3 256 57.7 288 56.8C320 56 352 50 384 52.2C416 54.3 448 64.7 480 69.8C512 75 544 75 576 71.7C608 68.3 640 61.7 672 57.2C704 52.7 736 50.3 768 50.5C800 50.7 832 53.3 864 52.8C896 52.3 928 48.7 944 46.8L960 45L960 0L944 0C928 0 896 0 864 0C832 0 800 0 768 0C736 0 704 0 672 0C640 0 608 0 576 0C544 0 512 0 480 0C448 0 416 0 384 0C352 0 320 0 288 0C256 0 224 0 192 0C160 0 128 0 96 0C64 0 32 0 16 0L0 0Z" fill="#518add"></path><path d="M0 36L16 40.2C32 44.3 64 52.7 96 54.2C128 55.7 160 50.3 192 48.3C224 46.3 256 47.7 288 46C320 44.3 352 39.7 384 39.7C416 39.7 448 44.3 480 44.7C512 45 544 41 576 38.8C608 36.7 640 36.3 672 38.5C704 40.7 736 45.3 768 44.8C800 44.3 832 38.7 864 36.2C896 33.7 928 34.3 944 34.7L960 35L960 0L944 0C928 0 896 0 864 0C832 0 800 0 768 0C736 0 704 0 672 0C640 0 608 0 576 0C544 0 512 0 480 0C448 0 416 0 384 0C352 0 320 0 288 0C256 0 224 0 192 0C160 0 128 0 96 0C64 0 32 0 16 0L0 0Z" fill="#426ebb"></path><path d="M0 43L16 39C32 35 64 27 96 26.7C128 26.3 160 33.7 192 35.5C224 37.3 256 33.7 288 31.5C320 29.3 352 28.7 384 30.8C416 33 448 38 480 38.7C512 39.3 544 35.7 576 35.8C608 36 640 40 672 41.2C704 42.3 736 40.7 768 37C800 33.3 832 27.7 864 28.3C896 29 928 36 944 39.5L960 43L960 0L944 0C928 0 896 0 864 0C832 0 800 0 768 0C736 0 704 0 672 0C640 0 608 0 576 0C544 0 512 0 480 0C448 0 416 0 384 0C352 0 320 0 288 0C256 0 224 0 192 0C160 0 128 0 96 0C64 0 32 0 16 0L0 0Z" fill="#32539a"></path><path d="M0 16L16 16.7C32 17.3 64 18.7 96 17.2C128 15.7 160 11.3 192 10.2C224 9 256 11 288 11.8C320 12.7 352 12.3 384 12.5C416 12.7 448 13.3 480 12.8C512 12.3 544 10.7 576 9.5C608 8.3 640 7.7 672 10.3C704 13 736 19 768 19.2C800 19.3 832 13.7 864 13.2C896 12.7 928 17.3 944 19.7L960 22L960 0L944 0C928 0 896 0 864 0C832 0 800 0 768 0C736 0 704 0 672 0C640 0 608 0 576 0C544 0 512 0 480 0C448 0 416 0 384 0C352 0 320 0 288 0C256 0 224 0 192 0C160 0 128 0 96 0C64 0 32 0 16 0L0 0Z" fill="#223a7a"></path></svg>