<svg version="1.1" id="Layer_1" xmlns="http://www.w3.org/2000/svg" xmlns:xlink="http://www.w3.org/1999/xlink" x="0px" y="0px"
	 width="100%" viewBox="0 0 3000 3096" enable-background="new 0 0 3000 3096" xml:space="preserve">
<path fill="#000000" opacity="1.000000" stroke="none" 
	d="
M1426.000000,3098.000000 
	C950.666748,3098.000000 476.333496,3098.000000 2.000191,3098.000000 
	C2.000127,2066.000244 2.000127,1034.000488 2.000064,2.000607 
	C1001.999512,2.000404 2001.999023,2.000404 3001.999023,2.000202 
	C3001.999268,1033.999390 3001.999268,2065.998779 3001.999512,3097.999023 
	C2477.000000,3098.000000 1952.000000,3098.000000 1426.000000,3098.000000 
M1893.461304,2415.116211 
	C1894.070068,2415.645264 1894.678955,2416.174316 1895.728271,2417.964111 
	C1898.973022,2421.551270 1902.217773,2425.138428 1906.029907,2429.914795 
	C1915.424194,2441.502197 1926.968750,2450.386719 1940.424316,2456.700928 
	C1961.029175,2466.369873 1980.513916,2464.259033 1998.656006,2450.493652 
	C2009.967529,2441.911133 2018.587891,2430.927734 2026.179199,2419.076416 
	C2037.913086,2400.757080 2046.746460,2381.022705 2054.217041,2360.667480 
	C2076.469971,2300.032227 2089.296143,2237.162109 2097.902344,2173.359619 
	C2105.968506,2113.562500 2110.596436,2053.423096 2113.527100,1993.188477 
	C2117.283936,1915.966553 2118.925049,1838.701660 2116.866455,1761.363770 
	C2114.488281,1672.032104 2108.839355,1582.994629 2096.371338,1494.451416 
	C2088.378174,1437.687866 2077.687988,1381.481812 2061.974854,1326.312744 
	C2047.981323,1277.182129 2030.371704,1229.493042 2004.239136,1185.330566 
	C1987.663086,1157.318115 1968.267822,1131.490723 1942.438232,1111.316284 
	C1889.865479,1070.253662 1832.650879,1061.364136 1770.901611,1088.303101 
	C1745.064575,1099.574829 1722.012695,1115.395020 1700.326782,1133.270142 
	C1657.878540,1168.258789 1621.606323,1209.099976 1588.936523,1253.075562 
	C1506.875244,1363.536133 1438.887085,1481.815063 1392.103760,1611.688965 
	C1389.366455,1619.288330 1386.293701,1626.766846 1382.868286,1635.616089 
	C1380.804199,1632.294312 1379.485107,1630.438354 1378.434082,1628.441406 
	C1335.561035,1546.978760 1292.711792,1465.503418 1250.160645,1382.621704 
	C1248.054321,1379.088989 1245.947998,1375.556152 1244.019043,1370.600464 
	C1241.241211,1365.754395 1238.463257,1360.908447 1235.777588,1354.675293 
	C1233.360229,1350.362183 1230.942749,1346.049072 1228.383057,1340.304932 
	C1225.676636,1335.496216 1222.970215,1330.687378 1220.143311,1324.450073 
	C1218.135864,1319.678345 1216.128418,1314.906616 1215.174194,1309.292603 
	C1359.195923,1204.592285 1514.053711,1119.899658 1681.067017,1057.878052 
	C1770.244995,1024.761108 1861.446777,999.552673 1956.668213,991.213562 
	C1997.944458,987.598694 2039.160645,987.604553 2080.142090,994.423828 
	C2099.237305,997.601318 2117.830566,1002.728943 2134.979004,1012.110962 
	C2161.014160,1026.354980 2175.854980,1048.120605 2180.327393,1077.565552 
	C2183.743896,1100.061401 2179.715332,1121.883545 2175.806152,1145.251099 
	C2173.671875,1154.586548 2171.537354,1163.921997 2169.402832,1173.257446 
	C2169.803467,1173.386597 2170.204102,1173.515869 2170.604736,1173.645020 
	C2173.730713,1163.761230 2176.856934,1153.877563 2180.412109,1142.499756 
	C2181.513184,1139.152710 2182.785889,1135.851074 2183.686035,1132.450928 
	C2187.874023,1116.632080 2190.820801,1100.585815 2191.148438,1084.191162 
	C2191.850830,1049.041870 2178.679443,1020.441406 2149.535400,1000.286804 
	C2139.204346,993.142334 2127.955322,987.001160 2116.448486,981.940857 
	C2081.651367,966.638367 2044.703491,959.715820 2007.092896,956.176636 
	C1954.089722,951.188843 1901.226807,954.001770 1848.540894,960.481689 
	C1795.290283,967.031006 1742.665649,977.238464 1690.731812,990.615967 
	C1506.992432,1037.945068 1332.519775,1108.424194 1167.060913,1201.259033 
	C1163.919678,1203.021606 1160.697876,1204.640503 1157.128174,1206.530396 
	C1154.605225,1201.979492 1152.386719,1197.912231 1150.108765,1193.878418 
	C1122.114990,1144.309448 1094.220215,1094.684082 1066.010620,1045.238281 
	C1061.081055,1036.597534 1055.227905,1028.395874 1049.079224,1020.557739 
	C1038.292480,1006.807068 1025.456055,995.193970 1009.883301,986.979797 
	C977.767456,970.039429 947.052673,972.502441 918.159790,994.451477 
	C903.645935,1005.477234 891.679688,1019.053772 883.853149,1035.522827 
	C877.018860,1049.903931 870.787048,1064.710693 865.888000,1079.846924 
	C849.124878,1131.638672 839.643311,1185.103394 832.110291,1238.844727 
	C825.039490,1289.288574 818.809143,1339.876953 813.546875,1390.540527 
	C807.525696,1448.512451 803.018738,1506.641235 797.718506,1564.689453 
	C797.302063,1569.250610 796.446655,1573.966187 794.742920,1578.184937 
	C778.801636,1617.657227 768.265564,1658.347534 765.143311,1700.949219 
	C762.314026,1739.552490 765.945740,1777.455933 775.910217,1814.763672 
	C779.116089,1826.766602 784.963013,1837.532593 794.307617,1847.657959 
	C798.134888,1850.575073 801.962158,1853.492188 806.446350,1857.630127 
	C813.947021,1860.944092 821.174683,1865.251587 828.995483,1867.401001 
	C863.937622,1877.004150 891.705078,1863.207642 904.527710,1829.326904 
	C909.891418,1815.154297 913.439331,1800.231323 916.945496,1785.443970 
	C918.900696,1777.197876 919.075256,1768.529541 920.663879,1759.312500 
	C920.900818,1758.220215 921.137756,1757.127930 922.340881,1754.649658 
	C923.349182,1747.136230 924.357483,1739.622681 925.990173,1730.759644 
	C926.570984,1724.518677 927.151794,1718.277710 928.289368,1710.505005 
	C928.780762,1705.658936 929.272217,1700.812744 930.344299,1695.313354 
	C930.226013,1694.209473 930.107788,1693.105713 930.244141,1690.425903 
	C930.302795,1688.303711 930.361450,1686.181519 931.259277,1682.848389 
	C931.420593,1679.879395 931.581970,1676.910278 932.269348,1673.262329 
	C932.195312,1672.170654 932.121338,1671.079102 932.373718,1668.432373 
	C932.369873,1666.317749 932.366028,1664.203247 933.194580,1660.728760 
	C934.360657,1640.936768 935.526794,1621.144897 937.511780,1600.191772 
	C945.628113,1586.453735 953.196167,1572.355103 961.955322,1559.039917 
	C1000.622986,1500.258789 1050.229492,1450.961792 1101.007324,1401.824585 
	C1103.033203,1404.233398 1105.367310,1406.449097 1107.021118,1409.090820 
	C1110.520874,1414.681519 1113.665405,1420.494507 1117.443115,1427.639526 
	C1120.830200,1433.960327 1124.217407,1440.281128 1127.735352,1447.936890 
	C1129.709351,1451.314331 1131.683472,1454.691650 1133.879883,1459.488159 
	C1136.525757,1464.342529 1139.171631,1469.196899 1141.992432,1475.433960 
	C1144.016235,1478.952271 1146.039917,1482.470459 1148.247803,1487.417847 
	C1189.863159,1569.314087 1231.757690,1651.068970 1277.772461,1730.612671 
	C1288.930664,1749.901245 1301.110962,1768.627441 1313.441406,1787.200562 
	C1324.762085,1804.253052 1340.510254,1816.515869 1359.024902,1825.003174 
	C1383.234497,1836.101318 1407.108887,1834.890015 1429.484985,1820.407593 
	C1438.323853,1814.686890 1446.426514,1807.433105 1453.697510,1799.770020 
	C1468.064209,1784.628296 1477.916870,1766.430542 1485.974121,1747.296265 
	C1507.279053,1696.702148 1529.020264,1646.282837 1549.607300,1595.397217 
	C1601.648804,1466.763794 1680.983887,1355.941650 1771.937134,1252.618896 
	C1782.736938,1240.350464 1794.285889,1228.760864 1808.406494,1220.201782 
	C1827.127563,1208.854126 1842.880615,1209.610962 1860.319824,1222.590942 
	C1863.513550,1224.968140 1866.485718,1227.679688 1869.356567,1230.447998 
	C1882.419556,1243.044922 1892.369629,1258.036133 1901.871216,1273.328979 
	C1925.015625,1310.579834 1941.672119,1350.822754 1955.904297,1392.112305 
	C1992.591064,1498.546143 2014.825073,1608.364868 2031.833496,1719.365356 
	C2040.914429,1778.629761 2047.610962,1838.179810 2052.629639,1897.934937 
	C2057.902100,1960.712280 2060.768555,2023.585571 2060.746094,2086.565430 
	C2060.724609,2146.890625 2058.183350,2207.106689 2049.978027,2266.963623 
	C2045.179810,2301.965088 2038.684326,2336.614258 2027.868408,2370.315430 
	C2021.655151,2389.674805 2014.573120,2408.721436 2003.226807,2425.795898 
	C1984.059937,2454.638916 1960.928467,2459.942627 1931.502319,2441.896484 
	C1922.741821,2436.523682 1914.755737,2429.887939 1906.094849,2422.737305 
	C1903.072144,2420.174561 1900.049438,2417.612061 1896.744507,2414.345215 
	C1896.744507,2414.345215 1896.197266,2413.818359 1895.680176,2412.576172 
	C1892.773438,2410.552734 1891.270264,2406.300537 1887.107788,2406.271484 
	C1886.385376,2407.070068 1885.662964,2407.868652 1884.940552,2408.667236 
	C1887.572510,2410.462158 1890.204468,2412.256836 1893.461304,2415.116211 
M1884.820435,2403.140137 
	C1884.820435,2403.140137 1885.014893,2403.013916 1884.820435,2403.140137 
z"/>
<path fill="#F3F3F3" opacity="1.000000" stroke="none" 
	d="
M1906.414795,2423.831055 
	C1914.755737,2429.887939 1922.741821,2436.523682 1931.502319,2441.896484 
	C1960.928467,2459.942627 1984.059937,2454.638916 2003.226807,2425.795898 
	C2014.573120,2408.721436 2021.655151,2389.674805 2027.868408,2370.315430 
	C2038.684326,2336.614258 2045.179810,2301.965088 2049.978027,2266.963623 
	C2058.183350,2207.106689 2060.724609,2146.890625 2060.746094,2086.565430 
	C2060.768555,2023.585571 2057.902100,1960.712280 2052.629639,1897.934937 
	C2047.610962,1838.179810 2040.914429,1778.629761 2031.833496,1719.365356 
	C2014.825073,1608.364868 1992.591064,1498.546143 1955.904297,1392.112305 
	C1941.672119,1350.822754 1925.015625,1310.579834 1901.871216,1273.328979 
	C1892.369629,1258.036133 1882.419556,1243.044922 1869.356567,1230.447998 
	C1866.485718,1227.679688 1863.513550,1224.968140 1860.319824,1222.590942 
	C1842.880615,1209.610962 1827.127563,1208.854126 1808.406494,1220.201782 
	C1794.285889,1228.760864 1782.736938,1240.350464 1771.937134,1252.618896 
	C1680.983887,1355.941650 1601.648804,1466.763794 1549.607300,1595.397217 
	C1529.020264,1646.282837 1507.279053,1696.702148 1485.974121,1747.296265 
	C1477.916870,1766.430542 1468.064209,1784.628296 1453.697510,1799.770020 
	C1446.426514,1807.433105 1438.323853,1814.686890 1429.484985,1820.407593 
	C1407.108887,1834.890015 1383.234497,1836.101318 1359.024902,1825.003174 
	C1340.510254,1816.515869 1324.762085,1804.253052 1313.441406,1787.200562 
	C1301.110962,1768.627441 1288.930664,1749.901245 1277.772461,1730.612671 
	C1231.757690,1651.068970 1189.863159,1569.314087 1148.850342,1486.700439 
	C1158.942871,1476.774170 1168.638184,1467.765259 1177.857666,1458.293091 
	C1185.241943,1450.706299 1191.929199,1442.446411 1199.143311,1434.687378 
	C1206.996582,1426.241211 1215.143677,1418.068970 1223.083130,1409.701782 
	C1230.555908,1401.826172 1237.869629,1393.798706 1245.404175,1385.983643 
	C1246.445068,1384.903931 1248.353027,1384.660278 1249.859619,1384.029663 
	C1292.711792,1465.503418 1335.561035,1546.978760 1378.434082,1628.441406 
	C1379.485107,1630.438354 1380.804199,1632.294312 1382.868286,1635.616089 
	C1386.293701,1626.766846 1389.366455,1619.288330 1392.103760,1611.688965 
	C1438.887085,1481.815063 1506.875244,1363.536133 1588.936523,1253.075562 
	C1621.606323,1209.099976 1657.878540,1168.258789 1700.326782,1133.270142 
	C1722.012695,1115.395020 1745.064575,1099.574829 1770.901611,1088.303101 
	C1832.650879,1061.364136 1889.865479,1070.253662 1942.438232,1111.316284 
	C1968.267822,1131.490723 1987.663086,1157.318115 2004.239136,1185.330566 
	C2030.371704,1229.493042 2047.981323,1277.182129 2061.974854,1326.312744 
	C2077.687988,1381.481812 2088.378174,1437.687866 2096.371338,1494.451416 
	C2108.839355,1582.994629 2114.488281,1672.032104 2116.866455,1761.363770 
	C2118.925049,1838.701660 2117.283936,1915.966553 2113.527100,1993.188477 
	C2110.596436,2053.423096 2105.968506,2113.562500 2097.902344,2173.359619 
	C2089.296143,2237.162109 2076.469971,2300.032227 2054.217041,2360.667480 
	C2046.746460,2381.022705 2037.913086,2400.757080 2026.179199,2419.076416 
	C2018.587891,2430.927734 2009.967529,2441.911133 1998.656006,2450.493652 
	C1980.513916,2464.259033 1961.029175,2466.369873 1940.424316,2456.700928 
	C1926.968750,2450.386719 1915.424194,2441.502197 1905.937622,2428.087402 
	C1906.035156,2425.450439 1906.224976,2424.640869 1906.414795,2423.831055 
z"/>
<path fill="#F4F4F4" opacity="1.000000" stroke="none" 
	d="
M1099.530273,1401.424561 
	C1050.229492,1450.961792 1000.622986,1500.258789 961.955322,1559.039917 
	C953.196167,1572.355103 945.628113,1586.453735 936.513794,1601.036255 
	C915.484924,1633.655396 895.241638,1665.299072 875.522217,1697.265991 
	C867.013000,1711.060181 859.587341,1725.522583 851.102600,1740.058838 
	C845.017029,1750.310303 839.431213,1760.147705 834.007263,1770.073730 
	C831.164124,1775.276611 828.605164,1780.634888 825.372437,1786.340210 
	C821.295593,1793.531860 817.689758,1800.268555 814.250183,1807.088989 
	C808.730164,1818.035156 803.320129,1829.036621 797.352844,1840.389282 
	C795.858032,1842.648193 794.873962,1844.532471 793.889893,1846.416870 
	C784.963013,1837.532593 779.116089,1826.766602 775.910217,1814.763672 
	C765.945740,1777.455933 762.314026,1739.552490 765.143311,1700.949219 
	C768.265564,1658.347534 778.801636,1617.657227 794.742920,1578.184937 
	C796.446655,1573.966187 797.302063,1569.250610 797.718506,1564.689453 
	C803.018738,1506.641235 807.525696,1448.512451 813.546875,1390.540527 
	C818.809143,1339.876953 825.039490,1289.288574 832.110291,1238.844727 
	C839.643311,1185.103394 849.124878,1131.638672 865.888000,1079.846924 
	C870.787048,1064.710693 877.018860,1049.903931 883.853149,1035.522827 
	C891.679688,1019.053772 903.645935,1005.477234 918.159790,994.451477 
	C947.052673,972.502441 977.767456,970.039429 1009.883301,986.979797 
	C1025.456055,995.193970 1038.292480,1006.807068 1049.079224,1020.557739 
	C1055.227905,1028.395874 1061.081055,1036.597534 1066.010620,1045.238281 
	C1094.220215,1094.684082 1122.114990,1144.309448 1150.108765,1193.878418 
	C1152.386719,1197.912231 1154.605225,1201.979492 1157.128174,1206.530396 
	C1160.697876,1204.640503 1163.919678,1203.021606 1167.060913,1201.259033 
	C1332.519775,1108.424194 1506.992432,1037.945068 1690.731812,990.615967 
	C1742.665649,977.238464 1795.290283,967.031006 1848.540894,960.481689 
	C1901.226807,954.001770 1954.089722,951.188843 2007.092896,956.176636 
	C2044.703491,959.715820 2081.651367,966.638367 2116.448486,981.940857 
	C2127.955322,987.001160 2139.204346,993.142334 2149.535400,1000.286804 
	C2178.679443,1020.441406 2191.850830,1049.041870 2191.148438,1084.191162 
	C2190.820801,1100.585815 2187.874023,1116.632080 2183.686035,1132.450928 
	C2182.785889,1135.851074 2181.513184,1139.152710 2179.613770,1143.247070 
	C2178.041748,1143.951416 2177.268066,1143.908569 2176.494141,1143.865723 
	C2179.715332,1121.883545 2183.743896,1100.061401 2180.327393,1077.565552 
	C2175.854980,1048.120605 2161.014160,1026.354980 2134.979004,1012.110962 
	C2117.830566,1002.728943 2099.237305,997.601318 2080.142090,994.423828 
	C2039.160645,987.604553 1997.944458,987.598694 1956.668213,991.213562 
	C1861.446777,999.552673 1770.244995,1024.761108 1681.067017,1057.878052 
	C1514.053711,1119.899658 1359.195923,1204.592285 1213.960571,1309.807373 
	C1187.479004,1326.062622 1163.089722,1343.052002 1140.814575,1362.842163 
	C1126.738159,1375.348389 1113.270752,1388.540283 1099.530273,1401.424561 
M975.315430,1218.065674 
	C967.515320,1262.724731 961.843628,1307.657837 956.935547,1353.570557 
	C985.526855,1329.466064 1013.143127,1306.183716 1041.170776,1282.554565 
	C1022.581299,1247.721313 1004.118286,1212.635864 982.508728,1178.606079 
	C980.217407,1191.190308 977.926147,1203.774414 975.315430,1218.065674 
z"/>
<path fill="#F3F3F3" opacity="1.000000" stroke="none" 
	d="
M925.365784,1732.109253 
	C924.357483,1739.622681 923.349182,1747.136230 921.249634,1755.530029 
	C920.123047,1757.624146 920.087585,1758.837769 920.052246,1760.051514 
	C919.075256,1768.529541 918.900696,1777.197876 916.945496,1785.443970 
	C913.439331,1800.231323 909.891418,1815.154297 904.527710,1829.326904 
	C891.705078,1863.207642 863.937622,1877.004150 828.995483,1867.401001 
	C821.174683,1865.251587 813.947021,1860.944092 806.287964,1856.323486 
	C807.616577,1852.866333 808.877563,1850.509277 810.625732,1848.597900 
	C826.080139,1831.701050 841.432617,1814.704712 857.184021,1798.087280 
	C876.624023,1777.578369 896.340210,1757.328369 916.159058,1737.184814 
	C918.514465,1734.791016 922.263000,1733.767822 925.365784,1732.109253 
z"/>
<path fill="#6E6E6E" opacity="1.000000" stroke="none" 
	d="
M1100.268799,1401.624512 
	C1113.270752,1388.540283 1126.738159,1375.348389 1140.814575,1362.842163 
	C1163.089722,1343.052002 1187.479004,1326.062622 1213.433838,1310.228516 
	C1216.128418,1314.906616 1218.135864,1319.678345 1219.454468,1325.203491 
	C1215.494263,1327.987671 1211.664185,1329.470825 1209.045898,1332.141724 
	C1195.800781,1345.652588 1182.758789,1359.368042 1169.864380,1373.215576 
	C1158.877930,1385.014038 1148.477295,1397.369385 1137.252686,1408.930054 
	C1131.089844,1415.277466 1123.759644,1420.491333 1116.955688,1426.216309 
	C1113.665405,1420.494507 1110.520874,1414.681519 1107.021118,1409.090820 
	C1105.367310,1406.449097 1103.033203,1404.233398 1100.268799,1401.624512 
z"/>
<path fill="#BABABA" opacity="1.000000" stroke="none" 
	d="
M797.863586,1840.014771 
	C803.320129,1829.036621 808.730164,1818.035156 814.250183,1807.088989 
	C817.689758,1800.268555 821.295593,1793.531860 825.796021,1786.814575 
	C829.238098,1785.730225 832.331116,1785.181641 834.082214,1783.349976 
	C844.604736,1772.343262 854.820374,1761.043091 865.136414,1749.838867 
	C871.823669,1742.575562 878.448669,1735.253784 885.204834,1728.055176 
	C897.936951,1714.489380 910.673706,1700.925781 923.604126,1687.550415 
	C925.283264,1685.813599 928.119751,1685.195557 930.420166,1684.059326 
	C930.361450,1686.181519 930.302795,1688.303711 929.720764,1691.512451 
	C929.386169,1693.721680 929.574951,1694.844116 929.763672,1695.966675 
	C929.272217,1700.812744 928.780762,1705.658936 927.287109,1711.285645 
	C922.563416,1714.005249 918.140320,1715.221558 915.255554,1718.022339 
	C907.469299,1725.581543 900.326599,1733.804688 892.949951,1741.784302 
	C884.027527,1751.435791 875.242981,1761.217773 866.191772,1770.746582 
	C850.061584,1787.727905 833.758789,1804.545166 817.582581,1821.483032 
	C816.000549,1823.139526 815.127991,1825.598389 813.357422,1826.927002 
	C807.932190,1830.998291 805.411743,1838.505859 797.863586,1840.014771 
z"/>
<path fill="#868686" opacity="1.000000" stroke="none" 
	d="
M851.669556,1739.681641 
	C859.587341,1725.522583 867.013000,1711.060181 875.522217,1697.265991 
	C895.241638,1665.299072 915.484924,1633.655396 936.104370,1601.616821 
	C935.526794,1621.144897 934.360657,1640.936768 932.056824,1661.420654 
	C923.507263,1668.996094 915.664246,1675.476196 908.767944,1682.842529 
	C891.158936,1701.652222 874.005249,1720.887695 856.498047,1739.794434 
	C855.773804,1740.576416 853.318420,1739.755615 851.669556,1739.681641 
z"/>
<path fill="#868686" opacity="1.000000" stroke="none" 
	d="
M1117.199463,1426.927979 
	C1123.759644,1420.491333 1131.089844,1415.277466 1137.252686,1408.930054 
	C1148.477295,1397.369385 1158.877930,1385.014038 1169.864380,1373.215576 
	C1182.758789,1359.368042 1195.800781,1345.652588 1209.045898,1332.141724 
	C1211.664185,1329.470825 1215.494263,1327.987671 1219.514648,1325.917725 
	C1222.970215,1330.687378 1225.676636,1335.496216 1227.687988,1341.091309 
	C1224.182129,1343.398560 1220.815308,1344.369751 1218.665039,1346.543945 
	C1212.407959,1352.870605 1206.754272,1359.788330 1200.655640,1366.278687 
	C1178.270142,1390.102173 1155.756958,1413.806030 1133.425659,1437.680054 
	C1131.036499,1440.234131 1129.523804,1443.608276 1127.604614,1446.601929 
	C1124.217407,1440.281128 1120.830200,1433.960327 1117.199463,1426.927979 
z"/>
<path fill="#BABABA" opacity="1.000000" stroke="none" 
	d="
M1235.685425,1356.062378 
	C1238.463257,1360.908447 1241.241211,1365.754395 1243.211670,1371.326172 
	C1239.650635,1373.659180 1236.385498,1374.766968 1234.237305,1376.965820 
	C1227.323853,1384.041992 1220.891113,1391.584595 1214.149414,1398.832520 
	C1191.259155,1423.441528 1168.327637,1448.012207 1145.343140,1472.533203 
	C1144.541016,1473.388916 1143.009277,1473.560791 1141.817505,1474.051270 
	C1139.171631,1469.196899 1136.525757,1464.342529 1134.483032,1458.701904 
	C1135.712769,1457.708008 1136.540527,1457.688599 1136.936523,1457.265381 
	C1145.918579,1447.663330 1154.877930,1438.039795 1163.791138,1428.373657 
	C1175.688599,1415.471558 1187.566284,1402.551147 1199.404541,1389.594727 
	C1204.088623,1384.468140 1208.537598,1379.124268 1213.286987,1374.060547 
	C1218.222900,1368.798096 1223.211548,1363.553711 1228.563232,1358.730103 
	C1230.315308,1357.150757 1233.276978,1356.913452 1235.685425,1356.062378 
z"/>
<path fill="#D0D0D0" opacity="1.000000" stroke="none" 
	d="
M797.352844,1840.389282 
	C805.411743,1838.505859 807.932190,1830.998291 813.357422,1826.927002 
	C815.127991,1825.598389 816.000549,1823.139526 817.582581,1821.483032 
	C833.758789,1804.545166 850.061584,1787.727905 866.191772,1770.746582 
	C875.242981,1761.217773 884.027527,1751.435791 892.949951,1741.784302 
	C900.326599,1733.804688 907.469299,1725.581543 915.255554,1718.022339 
	C918.140320,1715.221558 922.563416,1714.005249 927.008789,1712.051514 
	C927.151794,1718.277710 926.570984,1724.518677 925.677979,1731.434448 
	C922.263000,1733.767822 918.514465,1734.791016 916.159058,1737.184814 
	C896.340210,1757.328369 876.624023,1777.578369 857.184021,1798.087280 
	C841.432617,1814.704712 826.080139,1831.701050 810.625732,1848.597900 
	C808.877563,1850.509277 807.616577,1852.866333 805.959534,1855.712891 
	C801.962158,1853.492188 798.134888,1850.575073 794.098755,1847.037354 
	C794.873962,1844.532471 795.858032,1842.648193 797.352844,1840.389282 
z"/>
<path fill="#A0A0A0" opacity="1.000000" stroke="none" 
	d="
M1235.731445,1355.368896 
	C1233.276978,1356.913452 1230.315308,1357.150757 1228.563232,1358.730103 
	C1223.211548,1363.553711 1218.222900,1368.798096 1213.286987,1374.060547 
	C1208.537598,1379.124268 1204.088623,1384.468140 1199.404541,1389.594727 
	C1187.566284,1402.551147 1175.688599,1415.471558 1163.791138,1428.373657 
	C1154.877930,1438.039795 1145.918579,1447.663330 1136.936523,1457.265381 
	C1136.540527,1457.688599 1135.712769,1457.708008 1134.371826,1457.992432 
	C1131.683472,1454.691650 1129.709351,1451.314331 1127.669922,1447.269409 
	C1129.523804,1443.608276 1131.036499,1440.234131 1133.425659,1437.680054 
	C1155.756958,1413.806030 1178.270142,1390.102173 1200.655640,1366.278687 
	C1206.754272,1359.788330 1212.407959,1352.870605 1218.665039,1346.543945 
	C1220.815308,1344.369751 1224.182129,1343.398560 1227.759277,1341.806885 
	C1230.942749,1346.049072 1233.360229,1350.362183 1235.731445,1355.368896 
z"/>
<path fill="#D0D0D0" opacity="1.000000" stroke="none" 
	d="
M1141.905029,1474.742676 
	C1143.009277,1473.560791 1144.541016,1473.388916 1145.343140,1472.533203 
	C1168.327637,1448.012207 1191.259155,1423.441528 1214.149414,1398.832520 
	C1220.891113,1391.584595 1227.323853,1384.041992 1234.237305,1376.965820 
	C1236.385498,1374.766968 1239.650635,1373.659180 1243.123047,1372.037598 
	C1245.947998,1375.556152 1248.054321,1379.088989 1250.010132,1383.325684 
	C1248.353027,1384.660278 1246.445068,1384.903931 1245.404175,1385.983643 
	C1237.869629,1393.798706 1230.555908,1401.826172 1223.083130,1409.701782 
	C1215.143677,1418.068970 1206.996582,1426.241211 1199.143311,1434.687378 
	C1191.929199,1442.446411 1185.241943,1450.706299 1177.857666,1458.293091 
	C1168.638184,1467.765259 1158.942871,1476.774170 1148.758301,1485.985840 
	C1146.039917,1482.470459 1144.016235,1478.952271 1141.905029,1474.742676 
z"/>
<path fill="#A0A0A0" opacity="1.000000" stroke="none" 
	d="
M851.102661,1740.058838 
	C853.318420,1739.755615 855.773804,1740.576416 856.498047,1739.794434 
	C874.005249,1720.887695 891.158936,1701.652222 908.767944,1682.842529 
	C915.664246,1675.476196 923.507263,1668.996094 931.640625,1662.100586 
	C932.366028,1664.203247 932.369873,1666.317749 931.784668,1669.491455 
	C931.378174,1671.680664 931.560730,1672.811035 931.743286,1673.941284 
	C931.581970,1676.910278 931.420593,1679.879395 930.839722,1683.453857 
	C928.119751,1685.195557 925.283264,1685.813599 923.604126,1687.550415 
	C910.673706,1700.925781 897.936951,1714.489380 885.204834,1728.055176 
	C878.448669,1735.253784 871.823669,1742.575562 865.136414,1749.838867 
	C854.820374,1761.043091 844.604736,1772.343262 834.082214,1783.349976 
	C832.331116,1785.181641 829.238098,1785.730225 826.341553,1786.397339 
	C828.605164,1780.634888 831.164124,1775.276611 834.007263,1770.073730 
	C839.431213,1760.147705 845.017029,1750.310303 851.102661,1740.058838 
z"/>
<path fill="#BABABA" opacity="1.000000" stroke="none" 
	d="
M2176.150146,1144.558350 
	C2177.268066,1143.908569 2178.041748,1143.951416 2179.399414,1143.994019 
	C2176.856934,1153.877563 2173.730713,1163.761230 2170.604736,1173.645020 
	C2170.204102,1173.515869 2169.803467,1173.386597 2169.402832,1173.257446 
	C2171.537354,1163.921997 2173.671875,1154.586548 2176.150146,1144.558350 
z"/>
<path fill="#BABABA" opacity="1.000000" stroke="none" 
	d="
M1906.254883,2423.284180 
	C1906.224976,2424.640869 1906.035156,2425.450439 1905.653931,2427.492920 
	C1902.217773,2425.138428 1898.973022,2421.551270 1895.942139,2416.919434 
	C1896.446411,2415.599365 1896.736572,2415.324219 1897.026611,2415.049316 
	C1900.049438,2417.612061 1903.072144,2420.174561 1906.254883,2423.284180 
z"/>
<path fill="#6E6E6E" opacity="1.000000" stroke="none" 
	d="
M1892.836426,2414.051758 
	C1890.204468,2412.256836 1887.572510,2410.462158 1884.940552,2408.667236 
	C1885.662964,2407.868652 1886.385376,2407.070068 1887.107788,2406.271484 
	C1891.270264,2406.300537 1892.773438,2410.552734 1895.097534,2413.241699 
	C1893.955566,2413.955566 1893.396118,2414.003418 1892.836426,2414.051758 
z"/>
<path fill="#868686" opacity="1.000000" stroke="none" 
	d="
M932.006287,1673.601807 
	C931.560730,1672.811035 931.378174,1671.680664 931.621460,1670.268921 
	C932.121338,1671.079102 932.195312,1672.170654 932.006287,1673.601807 
z"/>
<path fill="#868686" opacity="1.000000" stroke="none" 
	d="
M930.054016,1695.640015 
	C929.574951,1694.844116 929.386169,1693.721680 929.593506,1692.300537 
	C930.107788,1693.105713 930.226013,1694.209473 930.054016,1695.640015 
z"/>
<path fill="#868686" opacity="1.000000" stroke="none" 
	d="
M920.358032,1759.682007 
	C920.087585,1758.837769 920.123047,1757.624146 920.766541,1756.223022 
	C921.137756,1757.127930 920.900818,1758.220215 920.358032,1759.682007 
z"/>
<path fill="#6E6E6E" opacity="1.000000" stroke="none" 
	d="
M1884.917725,2403.077148 
	C1885.014893,2403.013916 1884.820435,2403.140137 1884.917725,2403.077148 
z"/>
<path fill="#BABABA" opacity="1.000000" stroke="none" 
	d="
M1893.148926,2414.583984 
	C1893.396118,2414.003418 1893.955566,2413.955566 1895.356079,2413.862793 
	C1896.197266,2413.818359 1896.744507,2414.345215 1896.885498,2414.697266 
	C1896.736572,2415.324219 1896.446411,2415.599365 1895.721924,2416.289062 
	C1894.678955,2416.174316 1894.070068,2415.645264 1893.148926,2414.583984 
z"/>
<path fill="#000000" opacity="1.000000" stroke="none" 
	d="
M975.475098,1217.212158 
	C977.926147,1203.774414 980.217407,1191.190308 982.508728,1178.606079 
	C1004.118286,1212.635864 1022.581299,1247.721313 1041.170776,1282.554565 
	C1013.143127,1306.183716 985.526855,1329.466064 956.935547,1353.570557 
	C961.843628,1307.657837 967.515320,1262.724731 975.475098,1217.212158 
z"/>
</svg>