<?xml version="1.0" encoding="iso-8859-1"?>
<!-- Generator: Adobe Illustrator 19.0.0, SVG Export Plug-In . SVG Version: 6.00 Build 0)  -->
<svg version="1.1" id="Capa_1" xmlns="http://www.w3.org/2000/svg" xmlns:xlink="http://www.w3.org/1999/xlink" x="0px" y="0px"
	 viewBox="0 0 496 496" style="enable-background:new 0 0 496 496;" xml:space="preserve">
<g>
	<g>
		<g>
			<path d="M286.256,2.928c-11.608-1.824-23.368,1.552-32.28,9.192c-4.552,3.896-8.088,8.712-10.472,14.048
				C231.84,10.336,213.128,0,192,0c-23.648,0-44.288,12.92-55.368,32.048C136.424,32.04,136.208,32,136,32
				c-34.768,0-63.088,27.88-63.92,62.448c-11.096,6.416-19.368,17.128-22.576,29.856C24.912,133.608,8,157.416,8,184
				c0,9.88,2.312,19.616,6.736,28.472C5.192,224.984,0,240.232,0,256c0,18.44,7.136,36.088,19.688,49.4
				C17.328,312.52,16,320.104,16,328c0,35.552,26.08,65.728,60.976,71.096c6.608,14.656,19.344,26,35.32,30.632
				C115.224,466.752,146.232,496,184,496c23.872,0,45.008-11.728,58.112-29.672c2.28,6.728,6.336,12.808,11.864,17.544
				c7.336,6.288,16.6,9.672,26.12,9.672c2.048,0,4.112-0.16,6.168-0.48C407.792,474.248,496,371.176,496,248
				S407.792,21.752,286.256,2.928z M240,424c0,30.872-25.128,56-56,56s-56-25.128-56-56s25.128-56,56-56v-16
				c-35.944,0-65.728,26.496-71.064,60.968C98.112,406.976,88,392.616,88,376c0-22.056,17.944-40,40-40v-16
				c-30.872,0-56,25.128-56,56c0,1.936,0.12,3.84,0.312,5.728C48.824,374.888,32,353.184,32,328c0-30.872,25.128-56,56-56v-16
				c-25.568,0-48.008,13.432-60.784,33.576C20.008,279.96,16,268.2,16,256c0-13.744,5.096-26.992,14.336-37.312l3.984-4.456
				l-3.144-5.088C26.488,201.536,24,192.84,24,184c0-17.432,9.72-33.272,24.464-41.664C51.584,165.816,71.68,184,96,184v-16
				c-17.648,0-32-14.352-32-32s14.352-32,32-32s32,14.352,32,32h16c0-26.472-21.528-48-48-48c-2.512,0-4.96,0.256-7.376,0.624
				C91.888,67.608,108.792,51.08,130,48.416c-1.256,5-2,10.2-2,15.584c0,35.288,28.712,64,64,64v-16c-26.472,0-48-21.528-48-48
				s21.528-48,48-48s48,21.528,48,48V424z M283.808,477.256c-6.96,1.112-14.064-0.936-19.416-5.528
				c-5.336-4.568-8.392-11.216-8.392-18.224V42.496c0-7.016,3.056-13.656,8.392-18.224c4.408-3.784,9.984-5.824,15.712-5.824
				c1.232,0,2.472,0.096,3.704,0.288C395.656,36.064,480,134.624,480,248S395.656,459.936,283.808,477.256z"/>
			<path d="M328,192v-56h-16v56c0,4.416-3.584,8-8,8h-32v16h32C317.232,216,328,205.232,328,192z"/>
			<path d="M320,120c13.232,0,24-10.768,24-24s-10.768-24-24-24s-24,10.768-24,24S306.768,120,320,120z M320,88c4.416,0,8,3.584,8,8
				s-3.584,8-8,8c-4.416,0-8-3.584-8-8S315.584,88,320,88z"/>
			<path d="M312,304v56h16v-56c0-13.232-10.768-24-24-24h-32v16h32C308.416,296,312,299.584,312,304z"/>
			<path d="M320,376c-13.232,0-24,10.768-24,24s10.768,24,24,24s24-10.768,24-24S333.232,376,320,376z M320,408
				c-4.416,0-8-3.584-8-8c0-4.416,3.584-8,8-8c4.416,0,8,3.584,8,8C328,404.416,324.416,408,320,408z"/>
			<path d="M376,216c0,13.232-10.768,24-24,24h-80v16h80c22.056,0,40-17.944,40-40v-24h-16V216z"/>
			<path d="M384,128c-13.232,0-24,10.768-24,24s10.768,24,24,24s24-10.768,24-24S397.232,128,384,128z M384,160
				c-4.416,0-8-3.584-8-8s3.584-8,8-8c4.416,0,8,3.584,8,8S388.416,160,384,160z"/>
			<rect x="376" y="280" width="16" height="80"/>
			<rect x="416" y="168" width="16" height="128"/>
			<rect x="416" y="312" width="16" height="16"/>
			<rect x="192" y="56" width="16" height="16"/>
			<rect x="152" y="240" width="16" height="16"/>
			<rect x="200" y="416" width="16" height="16"/>
			<rect x="64" y="296" width="16" height="16"/>
			<rect x="208" y="184" width="16" height="16"/>
			<rect x="56" y="200" width="16" height="16"/>
		</g>
	</g>
</g>
<g>
</g>
<g>
</g>
<g>
</g>
<g>
</g>
<g>
</g>
<g>
</g>
<g>
</g>
<g>
</g>
<g>
</g>
<g>
</g>
<g>
</g>
<g>
</g>
<g>
</g>
<g>
</g>
<g>
</g>
</svg>
