<?xml version="1.0" encoding="UTF-8"?>
<!DOCTYPE svg PUBLIC "-//W3C//DTD SVG 1.1//EN" "http://www.w3.org/Graphics/SVG/1.1/DTD/svg11.dtd">
<!-- Creator: CorelDRAW -->
<svg xmlns="http://www.w3.org/2000/svg" xml:space="preserve" width="1.70666in" height="1.70666in" version="1.1" style="shape-rendering:geometricPrecision; text-rendering:geometricPrecision; image-rendering:optimizeQuality; fill-rule:evenodd; clip-rule:evenodd"
viewBox="0 0 1707 1707"
 xmlns:xlink="http://www.w3.org/1999/xlink">
 <defs>
  <style type="text/css">
   <![CDATA[
    .fil0 {fill:black}
   ]]>
  </style>
 </defs>
 <g id="Layer_x0020_1">
  <metadata id="CorelCorpID_0Corel-Layer"/>
  <path class="fil0" d="M1028 1706l-349 0c-15,0 -27,-12 -27,-26l0 -145c-108,-32 -207,-89 -289,-167l-125 72c-6,4 -13,5 -20,3 -7,-2 -13,-6 -16,-12l-175 -302c-7,-13 -3,-29 10,-36l125 -73c-13,-54 -20,-110 -20,-167 0,-56 7,-112 20,-167l-125 -72c-6,-4 -11,-9 -12,-16 -2,-7 -1,-14 2,-20l175 -302c4,-6 9,-11 16,-13 7,-1 14,-1 20,3l126 72c82,-78 181,-135 289,-167l0 -144c0,-15 11,-27 26,-27l349 0c14,0 26,12 26,27l0 145c108,31 207,89 289,167l125 -73c6,-3 14,-4 20,-2 7,1 13,6 17,12l174 302c8,13 3,29 -9,36l-126 72c13,55 20,111 20,167 0,57 -7,113 -20,167l125 73c13,7 17,23 10,36l-175 302c-3,6 -9,10 -16,12 -6,2 -14,1 -20,-3l-125 -72c-82,78 -181,135 -289,167l0 145c0,14 -12,26 -26,26zm-175 -276c318,0 577,-259 577,-577 0,-318 -259,-577 -577,-577 -318,0 -577,259 -577,577 0,318 259,577 577,577z"/>
  <path class="fil0" d="M746 1038c-14,0 -26,-11 -26,-26l0 -140c0,-15 12,-27 26,-27 15,0 27,12 27,27l0 140c0,15 -12,26 -27,26zm-154 0c-15,0 -26,-11 -26,-26l0 -140c0,-15 11,-27 26,-27 15,0 26,12 26,27l0 140c0,15 -11,26 -26,26z"/>
  <path class="fil0" d="M669 927c-79,0 -143,-64 -143,-142 0,-79 64,-143 143,-143 79,0 143,64 143,143 0,78 -64,142 -143,142z"/>
  <path class="fil0" d="M780 776c-4,0 -8,-1 -13,-4 -12,-7 -17,-23 -9,-36l73 -126c7,-13 23,-17 36,-10 12,7 17,24 9,36l-73 127c-5,8 -14,13 -23,13zm-131 -80c-5,0 -9,-1 -14,-3 -12,-8 -17,-24 -9,-36l72 -126c8,-13 24,-17 36,-10 13,7 17,24 10,36l-73 126c-4,8 -13,13 -22,13z"/>
  <path class="fil0" d="M535 1124l0 -37c0,-74 60,-134 134,-134l0 0c74,0 134,60 134,134l0 37 -268 0z"/>
  <path class="fil0" d="M808 1284l-278 0c-14,0 -26,-12 -26,-26l0 -81c0,-15 12,-26 26,-26l278 0c14,0 26,11 26,26l0 81c0,14 -12,26 -26,26z"/>
  <path class="fil0" d="M832 651c-79,0 -143,-64 -143,-143 0,-78 64,-143 143,-143 79,0 143,65 143,143 0,79 -64,143 -143,143z"/>
  <path class="fil0" d="M927 734l-92 -93c-11,-10 -11,-27 0,-37 10,-10 27,-10 37,0l94 94c9,9 10,23 3,33l-13 0c-10,0 -19,1 -29,3zm130 -99c-6,0 -13,-2 -18,-7l-109 -110c-11,-10 -11,-27 0,-37 10,-10 27,-10 37,0l109 109c10,10 10,27 0,38 -5,5 -12,7 -19,7z"/>
  <path class="fil0" d="M921 735l0 -52c0,-59 48,-107 107,-107 59,0 107,48 107,107l0 53c-11,-3 -23,-5 -36,-5l-143 0c-12,0 -24,1 -35,4z"/>
  <path class="fil0" d="M1176 997l-79 0c-13,0 -25,-10 -26,-24l-8 -65c0,-1 0,-2 0,-3 0,-1 0,-2 0,-3l-77 0c0,1 -1,4 -1,6 0,1 0,2 0,3l-7 63c-2,13 -13,23 -26,23l-72 0c-15,0 -27,-12 -27,-26l0 -115c0,-55 46,-99 103,-99l143 0c57,0 103,44 103,99l0 115c0,14 -12,26 -26,26z"/>
 </g>
</svg>
