<?xml version="1.0" encoding="UTF-8" standalone="no"?> <svg id="Layer_1" data-name="Layer 1" xmlns="http://www.w3.org/2000/svg" viewBox="0 0 48 48"><path d="M40,4H8A5.006,5.006,0,0,0,3,9V31a5.006,5.006,0,0,0,5,5H19v1.906c0,.034.015.062.017.094h-8.35A3.671,3.671,0,0,0,7,41.667,2.336,2.336,0,0,0,9.333,44H38.667A2.336,2.336,0,0,0,41,41.667,3.671,3.671,0,0,0,37.333,38h-8.35c0-.032.017-.06.017-.094V36H40a5.006,5.006,0,0,0,5-5V9A5.006,5.006,0,0,0,40,4ZM8,6H40a3,3,0,0,1,3,3V29H5V9A3,3,0,0,1,8,6ZM39,41.667a.333.333,0,0,1-.333.333H9.333A.333.333,0,0,1,9,41.667,1.669,1.669,0,0,1,10.667,40H37.333A1.669,1.669,0,0,1,39,41.667ZM27.017,38H20.983c0-.032.017-.06.017-.094V36h6v1.906C27,37.94,27.015,37.968,27.017,38ZM40,34H8a3,3,0,0,1-3-3H43A3,3,0,0,1,40,34Z"/><path d="M15.293,23.707a1,1,0,0,0,1.414-1.414L12.414,18l4.293-4.293a1,1,0,0,0-1.414-1.414l-5,5a1,1,0,0,0,0,1.414Z"/><path d="M31.293,23.707a1,1,0,0,0,1.414,0l5-5a1,1,0,0,0,0-1.414l-5-5a1,1,0,0,0-1.414,1.414L35.586,18l-4.293,4.293A1,1,0,0,0,31.293,23.707Z"/><path d="M20.553,24.9a1,1,0,0,0,1.342-.448l6-12a1,1,0,1,0-1.79-.894l-6,12A1,1,0,0,0,20.553,24.9Z"/></svg>