<?xml version="1.0" encoding="utf-8"?>
<!-- Generator: Adobe Illustrator 23.0.3, SVG Export Plug-In . SVG Version: 6.00 Build 0)  -->
<svg version="1.1" id="Icons" xmlns="http://www.w3.org/2000/svg" xmlns:xlink="http://www.w3.org/1999/xlink" x="0px" y="0px"
	 viewBox="0 0 32 32" style="enable-background:new 0 0 32 32;" xml:space="preserve">
<path d="M23,14.1V8.9C23,5.1,19.9,2,16,2S9,5.1,9,8.9v5.2c-2.3,0.5-4,2.5-4,4.9v5c0,2.8,2.2,5,5,5h12c2.8,0,5-2.2,5-5v-5
	C27,16.6,25.3,14.6,23,14.1z M20.7,19.7l-4,4C16.5,23.9,16.3,24,16,24s-0.5-0.1-0.7-0.3l-2-2c-0.4-0.4-0.4-1,0-1.4s1-0.4,1.4,0
	l1.3,1.3l3.3-3.3c0.4-0.4,1-0.4,1.4,0S21.1,19.3,20.7,19.7z M21,14H11V8.9C11,6.2,13.2,4,16,4s5,2.2,5,4.9V14z"/>
</svg>
